<svg id="Warstwa_1" data-name="Warstwa 1" xmlns="http://www.w3.org/2000/svg" viewBox="0 0 48 48"><defs><style>.cls-1{fill:none;stroke:#262626;stroke-linejoin:bevel;stroke-width:2px;}</style></defs><title>Artboard 1Icon-AssetManagement</title><polyline class="cls-1" points="28 27 3 27 3 3 36 3 36 18"/><line class="cls-1" x1="7" y1="6" x2="7" y2="8"/><line class="cls-1" x1="11" y1="6" x2="11" y2="8"/><line class="cls-1" x1="15" y1="6" x2="15" y2="8"/><line class="cls-1" x1="33" y1="15" x2="22" y2="15"/><line class="cls-1" x1="28" y1="19" x2="22" y2="19"/><line class="cls-1" x1="28" y1="23" x2="22" y2="23"/><line class="cls-1" x1="3" y1="11" x2="35" y2="11"/><line class="cls-1" x1="19" y1="11" x2="19" y2="27"/><polyline class="cls-1" points="6 23 9 19 13 19 16 15"/><line class="cls-1" x1="31" y1="39" x2="31" y2="45"/><line class="cls-1" x1="41" y1="39" x2="41" y2="45"/><circle class="cls-1" cx="36" cy="26" r="4"/><path class="cls-1" d="M27,38v7H45V38a5,5,0,0,0-5-5H32A5,5,0,0,0,27,38Z"/></svg>