<svg id="Warstwa_1" data-name="Warstwa 1" xmlns="http://www.w3.org/2000/svg" viewBox="0 0 48 48"><defs><style>.cls-1{fill:#262626;}</style></defs><title>Artboard 1icon-Monitoring</title><polygon class="cls-1" points="45 2 39 2 39 4 42.59 4 26.59 20 18 20 17.29 20.29 2.29 35.29 3.71 36.71 18.41 22 27 22 27.71 21.71 44 5.41 44 9 46 9 46 3 45 2"/><rect class="cls-1" x="8" y="35" width="2" height="11"/><rect class="cls-1" x="14" y="29" width="2" height="17"/><rect class="cls-1" x="20" y="24" width="2" height="22"/><rect class="cls-1" x="26" y="24" width="2" height="22"/><rect class="cls-1" x="38" y="15" width="2" height="31"/><rect class="cls-1" x="32" y="21" width="2" height="25"/><rect class="cls-1" x="2" y="40" width="2" height="6"/><rect class="cls-1" x="44" y="12" width="2" height="34"/></svg>